# xmcd CD database file
#
# Track frame offsets:
#	150
#	17108
#	38218
#	57270
#	76263
#	97563
#	117070
#	136668
#	157918
#	177633
#
# Disc length: 2633 seconds
#
# Revision: 0
# Processed by: cddbd v1.5PL3 Copyright (c) Steve Scherf et al.
# Submitted via: CDex 1.50beta8
#
DISCID=6c0a470a
DTITLE=杏里 - WAVE
DYEAR=1985
DGENRE=Pop
TTITLE0=CITY FICTION
TTITLE1=夜明けのSOLDIER
TTITLE2=INTO THE BODY
TTITLE3=LONG ISLAND BEACH
TTITLE4=WAVE
TTITLE5=TAKE IT
TTITLE6=LOVER'S NIGHT
TTITLE7=16(Sixteen)BEAT
TTITLE8=OVERSEA CALL
TTITLE9=瞳は永遠の香り
EXTD=YEAR: 1985
EXTT0=
EXTT1=
EXTT2=
EXTT3=
EXTT4=
EXTT5=
EXTT6=
EXTT7=
EXTT8=
EXTT9=
PLAYORDER=
